<?xml version="1.0" encoding="UTF-8" standalone="no"?>
<svg
   xmlns:dc="http://purl.org/dc/elements/1.1/"
   xmlns:cc="http://creativecommons.org/ns#"
   xmlns:rdf="http://www.w3.org/1999/02/22-rdf-syntax-ns#"
   xmlns:svg="http://www.w3.org/2000/svg"
   xmlns="http://www.w3.org/2000/svg"
   xmlns:sodipodi="http://sodipodi.sourceforge.net/DTD/sodipodi-0.dtd"
   xmlns:inkscape="http://www.inkscape.org/namespaces/inkscape"
   width="500pt"
   height="300pt"
   viewBox="0 0 500 300"
   version="1.1"
   id="svg2"
   inkscape:version="0.91 r13725"
   sodipodi:docname="key.svg">
  <metadata
     id="metadata36">
    <rdf:RDF>
      <cc:Work
         rdf:about="">
        <dc:format>image/svg+xml</dc:format>
        <dc:type
           rdf:resource="http://purl.org/dc/dcmitype/StillImage" />
        <dc:title></dc:title>
      </cc:Work>
    </rdf:RDF>
  </metadata>
  <defs
     id="defs34" />
  <sodipodi:namedview
     pagecolor="#ffffff"
     bordercolor="#666666"
     borderopacity="1"
     objecttolerance="10"
     gridtolerance="10"
     guidetolerance="10"
     inkscape:pageopacity="0"
     inkscape:pageshadow="2"
     inkscape:window-width="1920"
     inkscape:window-height="1021"
     id="namedview32"
     showgrid="false"
     inkscape:zoom="0.3776"
     inkscape:cx="-117.84958"
     inkscape:cy="312.5"
     inkscape:window-x="0"
     inkscape:window-y="32"
     inkscape:window-maximized="1"
     inkscape:current-layer="svg2" />
  <g
     id="#107fc9ff"
     transform="translate(0,-73.6)">
    <path
       d="m 351.54,84.47 c 16.09,-7.05 34.63,-8.11 51.54,-3.5 20.32,5.56 37.88,20 47.65,38.61 8.15,15.68 10.78,34.18 7.22,51.51 -5.01,25.54 -23.86,47.73 -48.25,56.83 -0.11,12.37 0.1,24.74 -0.12,37.11 -4.04,5.03 -9.15,9.26 -13.6,14 4.58,4.54 9.19,9.06 13.7,13.68 -4.66,4.4 -9.05,9.07 -13.69,13.5 4.49,4.69 9.13,9.23 13.73,13.81 -4.61,4.59 -9.27,9.14 -13.77,13.84 4.62,4.41 9,9.07 13.69,13.42 -5.32,5.46 -10.78,10.8 -16.15,16.22 -5.14,6.13 -15.5,7.13 -21.24,1.31 -7.46,-7.22 -14.66,-14.7 -22.05,-21.99 -2.99,-3.01 -5.98,-6.03 -8.97,-9.04 0.04,-8.21 0.02,-16.41 0.03,-24.62 0.01,-7.42 0.01,-14.85 0.01,-22.27 0.01,-5.73 0.01,-11.45 0.01,-17.17 0,-7.5 0.01,-15 0.01,-22.5 0.01,-6.35 0,-12.7 0.03,-19.06 -0.04,-2.29 -0.02,-4.58 -0.09,-6.87 -6.86,-4.34 -13.11,-9.65 -18.38,-15.84 -9.76,-11.67 -16.11,-26.21 -17.67,-41.36 -1.92,-16.58 1.84,-33.73 10.48,-48 8.21,-13.98 20.96,-25.24 35.88,-31.62 m 21.52,24.99 c -5.67,1.8 -10.45,5.69 -14.01,10.39 l -0.16,-0.02 c -6.25,9.04 -7.55,21.54 -1.96,31.21 5,9.34 15.35,14.83 25.77,15.16 5.45,-0.52 10.95,-1.81 15.52,-4.95 7.53,-4.83 12.59,-13.34 13.14,-22.27 0.6,-9.11 -3.34,-18.38 -10.32,-24.26 -7.56,-6.45 -18.59,-8.68 -27.98,-5.26 z"
       id="path5"
       inkscape:connector-curvature="0"
       style="opacity:1;fill:#107fc9" />
    <path
       d="m 152.38,212.41 c 0.37,0.08 1.1,0.25 1.46,0.34 1.13,7.15 1.19,14.43 0.56,21.63 1.13,1.39 3.01,2.57 2.92,4.59 -0.33,5.22 -1.79,11.07 -6.48,14.07 -0.42,4.18 -1.42,8.46 -4.74,11.34 0.06,1.74 0.12,3.48 0.2,5.22 1.47,0.25 2.94,0.5 4.42,0.76 0.23,1.68 0.32,3.4 0.85,5.03 3.88,2.98 8.6,4.62 13.27,5.94 9.41,2.52 19,5.39 27.04,11.1 l 0.48,0.33 c -0.25,5.42 0.18,10.86 -0.2,16.28 -0.65,2.26 -3.25,1.97 -5.09,2.04 -29.17,-0.18 -58.33,0 -87.49,-0.09 17.3,-33.02 35.59,-65.52 52.8,-98.58 z"
       id="path7"
       inkscape:connector-curvature="0"
       style="opacity:1;fill:#107fc9" />
  </g>
  <g
     id="#bbbbbbff"
     transform="translate(0,-73.6)">
    <path
       d="m 173.35,100.07 c 0.49,-1.91 2.84,-2.52 4.58,-2.43 22.7,0.01 45.4,0.01 68.11,0 2.1,-0.18 4.77,0.88 4.93,3.29 1.56,6.4 2.4,12.96 4.09,19.33 2.34,7.52 3.49,15.33 5.06,23.03 0.72,3.74 1.53,7.46 2.42,11.17 -1.29,0.97 -2.85,1.5 -4.47,1.36 -31.05,-0.07 -62.11,0.01 -93.17,-0.05 -1.32,0.14 -2.36,-0.74 -3.38,-1.41 0.95,-3.65 1.74,-7.35 2.42,-11.06 1.56,-7.7 2.74,-15.51 5.07,-23.03 1.74,-6.67 2.51,-13.55 4.34,-20.2 z"
       id="path10"
       inkscape:connector-curvature="0"
       style="opacity:1;fill:#bbbbbb" />
    <path
       d="m 322.85,205.45 c 5.27,6.19 11.52,11.5 18.38,15.84 0.07,2.29 0.05,4.58 0.09,6.87 -40.09,0.37 -80.18,-0.03 -120.26,0.19 -1.85,-0.21 -4.02,0.24 -5.6,-0.9 -1.37,-2.93 -0.7,-6.35 -0.89,-9.49 0.22,-3.8 -0.63,-7.86 0.91,-11.45 1.76,-0.59 3.63,-0.67 5.47,-0.71 27.38,0.1 54.76,0.03 82.14,0.05 6.58,-0.11 13.19,0.36 19.76,-0.4 z"
       id="path12"
       inkscape:connector-curvature="0"
       style="opacity:1;fill:#bbbbbb" />
    <path
       d="m 215.74,247.66 c 4.71,-0.85 9.54,-0.26 14.3,-0.36 37.08,-0.05 74.17,0.09 111.25,-0.08 0,7.5 -0.01,15 -0.01,22.5 -40.8,-0.16 -81.6,-0.02 -122.39,-0.05 -1.47,-0.19 -3.68,0.2 -3.89,-1.82 -0.79,-4.56 -0.31,-9.22 -0.44,-13.82 0.15,-2.14 -0.23,-4.57 1.18,-6.37 z"
       id="path14"
       inkscape:connector-curvature="0"
       style="opacity:1;fill:#bbbbbb" />
    <path
       d="m 216.2,287.21 c 3.9,-0.74 7.89,-0.34 11.83,-0.38 37.75,0.05 75.49,-0.07 113.24,0.06 0,7.42 0,14.85 -0.01,22.27 -40.06,0.38 -80.12,0 -120.17,0.2 -2.01,-0.28 -4.77,0.49 -6.05,-1.54 -0.91,-5.2 -0.35,-10.53 -0.43,-15.79 0.25,-1.64 -0.33,-4.02 1.59,-4.82 z"
       id="path16"
       inkscape:connector-curvature="0"
       style="opacity:1;fill:#bbbbbb" />
  </g>
  <g
     id="#ddddddff"
     transform="translate(0,-73.6)">
    <path
       d="m 313.17,120.26 c 0.82,-1.39 1.64,-2.79 2.49,-4.17 -8.64,14.27 -12.4,31.42 -10.48,48 1.56,15.15 7.91,29.69 17.67,41.36 -6.57,0.76 -13.18,0.29 -19.76,0.4 -27.38,-0.02 -54.76,0.05 -82.14,-0.05 -1.84,0.04 -3.71,0.12 -5.47,0.71 -1.54,3.59 -0.69,7.65 -0.91,11.45 0.19,3.14 -0.48,6.56 0.89,9.49 1.58,1.14 3.75,0.69 5.6,0.9 40.08,-0.22 80.17,0.18 120.26,-0.19 -0.03,6.36 -0.02,12.71 -0.03,19.06 -37.08,0.17 -74.17,0.03 -111.25,0.08 -4.76,0.1 -9.59,-0.49 -14.3,0.36 -1.41,1.8 -1.03,4.23 -1.18,6.37 0.13,4.6 -0.35,9.26 0.44,13.82 0.21,2.02 2.42,1.63 3.89,1.82 40.79,0.03 81.59,-0.11 122.39,0.05 0,5.72 0,11.44 -0.01,17.17 -37.75,-0.13 -75.49,-0.01 -113.24,-0.06 -3.94,0.04 -7.93,-0.36 -11.83,0.38 -1.92,0.8 -1.34,3.18 -1.59,4.82 0.08,5.26 -0.48,10.59 0.43,15.79 1.28,2.03 4.04,1.26 6.05,1.54 40.05,-0.2 80.11,0.18 120.17,-0.2 -0.01,8.21 0.01,16.41 -0.03,24.62 2.99,3.01 5.98,6.03 8.97,9.04 -101.38,0 -202.77,0 -304.15,0 -3.33,0.61 -4.91,-3.03 -4.66,-5.79 0.03,-70.36 -0.01,-140.73 0.02,-211.1 -0.3,-3.19 2.4,-5.96 5.61,-5.67 40.67,-0.01 81.33,-0.02 121.99,0.01 -2.33,7.52 -3.51,15.33 -5.07,23.03 -5.33,-0.05 -10.65,-0.08 -15.98,-0.05 -1.57,-0.1 -3.02,0.51 -4.44,1.09 0.12,6.65 0.01,13.3 0.08,19.95 4.01,1.4 8.29,0.87 12.44,0.94 38.71,0.02 77.42,-0.05 116.13,0.03 0.73,-1.31 1.79,-2.58 1.65,-4.18 0.06,-4.68 0.08,-9.36 -0.01,-14.03 0.06,-1.45 -0.92,-2.61 -1.54,-3.82 -4.05,0.04 -8.1,0.01 -12.15,0.06 -1.57,-7.7 -2.72,-15.51 -5.06,-23.03 19.37,-0.01 38.74,-0.01 58.11,0 M 71.78,194.99 c 0,32.94 -0.05,65.88 0.04,98.82 0.11,5.07 -0.27,10.16 0.13,15.22 0.49,2.39 3.29,1.92 5.11,2.04 7.51,-0.04 15.01,-0.02 22.52,-0.08 29.16,0.09 58.32,-0.09 87.49,0.09 1.84,-0.07 4.44,0.22 5.09,-2.04 0.38,-5.42 -0.05,-10.86 0.2,-16.28 l -0.48,-0.33 c 0.69,-5.12 0.32,-10.29 0.38,-15.43 0.04,-26.99 -0.04,-53.98 0.05,-80.97 -0.11,-1.84 0.17,-3.93 -1.16,-5.4 -5.67,-0.8 -11.4,-0.17 -17.1,-0.37 -33.03,0.13 -66.07,0.03 -99.11,0.07 -2.76,-0.54 -3.28,2.63 -3.16,4.66 z"
       id="path19"
       inkscape:connector-curvature="0"
       style="opacity:1;fill:#dddddd" />
    <path
       d="m 358.89,119.83 0.16,0.02 c 6.43,0.96 12.96,-0.06 19.42,0.58 2.73,0.22 4.24,3 4.21,5.51 0.07,13.42 -0.01,26.84 0.02,40.26 -10.42,-0.33 -20.77,-5.82 -25.77,-15.16 -5.59,-9.67 -4.29,-22.17 1.96,-31.21 z"
       id="path21"
       inkscape:connector-curvature="0"
       style="opacity:1;fill:#dddddd" />
  </g>
  <g
     id="#a0ceebff"
     transform="translate(0,-73.6)">
    <path
       d="m 71.78,194.99 c -0.12,-2.03 0.4,-5.2 3.16,-4.66 33.04,-0.04 66.08,0.06 99.11,-0.07 5.7,0.2 11.43,-0.43 17.1,0.37 -9,0.09 -18,-0.22 -26.99,0.21 -3.51,6.61 -6.94,13.26 -10.84,19.65 -2.23,-4.6 -6.26,-8.26 -11.19,-9.73 -7.04,-2.18 -14.96,-2.24 -21.82,0.59 -1.9,0.65 -2.81,2.53 -3.88,4.06 -2.97,0.55 -6.43,1.39 -7.4,4.7 -2.79,8.11 -1.63,17.22 1.54,25.07 -3.64,3.91 -1.61,9.26 -0.62,13.81 0.15,2.02 2.13,2.82 3.51,3.93 0.66,3.71 1.41,7.62 4.24,10.35 2,1.73 1.83,4.44 2.03,6.84 -1.51,0.06 -3.02,0.13 -4.52,0.19 -0.26,1.44 -0.51,2.89 -0.77,4.34 -11.06,6.67 -23.26,11.05 -35.32,15.52 -2.56,0.94 -4.96,2.27 -7.3,3.65 -0.09,-32.94 -0.04,-65.88 -0.04,-98.82 z"
       id="path24"
       inkscape:connector-curvature="0"
       style="opacity:1;fill:#a0ceeb" />
  </g>
  <g
     id="#81bee4ff"
     transform="translate(0,-73.6)">
    <path
       d="m 164.16,190.84 c 8.99,-0.43 17.99,-0.12 26.99,-0.21 1.33,1.47 1.05,3.56 1.16,5.4 -0.09,26.99 -0.01,53.98 -0.05,80.97 -0.06,5.14 0.31,10.31 -0.38,15.43 -8.04,-5.71 -17.63,-8.58 -27.04,-11.1 -4.67,-1.32 -9.39,-2.96 -13.27,-5.94 -0.53,-1.63 -0.62,-3.35 -0.85,-5.03 -1.48,-0.26 -2.95,-0.51 -4.42,-0.76 -0.08,-1.74 -0.14,-3.48 -0.2,-5.22 3.32,-2.88 4.32,-7.16 4.74,-11.34 4.69,-3 6.15,-8.85 6.48,-14.07 0.09,-2.02 -1.79,-3.2 -2.92,-4.59 0.63,-7.2 0.57,-14.48 -0.56,-21.63 -0.15,-0.76 -0.32,-1.51 -0.52,-2.26 3.9,-6.39 7.33,-13.04 10.84,-19.65 z"
       id="path27"
       inkscape:connector-curvature="0"
       style="opacity:1;fill:#81bee4" />
  </g>
  <g
     id="#4b9fd6ff"
     transform="translate(0,-73.6)">
    <path
       d="m 120.31,201.35 c 6.86,-2.83 14.78,-2.77 21.82,-0.59 4.93,1.47 8.96,5.13 11.19,9.73 0.2,0.75 0.37,1.5 0.52,2.26 -0.36,-0.09 -1.09,-0.26 -1.46,-0.34 -17.21,33.06 -35.5,65.56 -52.8,98.58 -7.51,0.06 -15.01,0.04 -22.52,0.08 -1.82,-0.12 -4.62,0.35 -5.11,-2.04 -0.4,-5.06 -0.02,-10.15 -0.13,-15.22 2.34,-1.38 4.74,-2.71 7.3,-3.65 12.06,-4.47 24.26,-8.85 35.32,-15.52 0.26,-1.45 0.51,-2.9 0.77,-4.34 1.5,-0.06 3.01,-0.13 4.52,-0.19 -0.2,-2.4 -0.03,-5.11 -2.03,-6.84 -2.83,-2.73 -3.58,-6.64 -4.24,-10.35 -1.38,-1.11 -3.36,-1.91 -3.51,-3.93 -0.99,-4.55 -3.02,-9.9 0.62,-13.81 -3.17,-7.85 -4.33,-16.96 -1.54,-25.07 0.97,-3.31 4.43,-4.15 7.4,-4.7 1.07,-1.53 1.98,-3.41 3.88,-4.06 z"
       id="path30"
       inkscape:connector-curvature="0"
       style="opacity:1;fill:#4b9fd6" />
  </g>
</svg>
